<svg xmlns="http://www.w3.org/2000/svg" viewBox="0 0 512 512">
  <!-- Purple rounded background -->
  <rect width="512" height="512" rx="112" fill="#7c3aed"/>

  <!-- Pot body -->
  <rect x="134" y="234" width="244" height="172" rx="28" fill="white"/>

  <!-- Pot lid -->
  <rect x="118" y="206" width="276" height="38" rx="14" fill="white"/>

  <!-- Lid knob -->
  <rect x="232" y="178" width="48" height="34" rx="10" fill="white"/>

  <!-- Left handle -->
  <rect x="86" y="240" width="56" height="32" rx="16" fill="white"/>

  <!-- Right handle -->
  <rect x="370" y="240" width="56" height="32" rx="16" fill="white"/>

  <!-- Heart inside pot, accent purple -->
  <path d="M256,362 C250,355 152,294 152,240 C152,214 172,194 198,194 C216,194 234,205 256,222 C278,205 296,194 314,194 C340,194 360,214 360,240 C360,294 262,355 256,362Z" fill="#7c3aed"/>

  <!-- Steam lines above pot (on the lid) -->
  <path d="M200,188 Q208,172 200,156 Q192,140 200,124" stroke="white" stroke-width="10" stroke-linecap="round" fill="none" opacity="0.7"/>
  <path d="M256,188 Q264,170 256,152 Q248,134 256,116" stroke="white" stroke-width="10" stroke-linecap="round" fill="none" opacity="0.7"/>
  <path d="M312,188 Q320,172 312,156 Q304,140 312,124" stroke="white" stroke-width="10" stroke-linecap="round" fill="none" opacity="0.7"/>
</svg>
